<svg id="图层_1" data-name="图层 1" xmlns="http://www.w3.org/2000/svg" viewBox="0 0 48 48"><defs><style></style></defs><title>图标</title><path class="cls-1" d="M38.21,10.83H9.79a.79.79,0,0,1,0-1.58H38.21a.79.79,0,1,1,0,1.58Z"/><path class="cls-1" d="M24,26.86A11.11,11.11,0,0,1,12.91,15.77V10h1.58v5.74a9.51,9.51,0,1,0,19,0V10h1.58v5.74A11.11,11.11,0,0,1,24,26.86Z"/><path class="cls-1" d="M19.27,16.75H16.93a.79.79,0,0,1,0-1.58h2.34a.79.79,0,0,1,0,1.58Zm5.9,0H22.83a.79.79,0,1,1,0-1.58h2.34a.79.79,0,0,1,0,1.58Zm5.9,0H28.72a.79.79,0,1,1,0-1.58h2.35a.79.79,0,0,1,0,1.58Zm-14.45,22a.8.8,0,0,1-.54-.21,3.74,3.74,0,0,1-1.31-2.76A4.33,4.33,0,0,1,16.09,33a3,3,0,0,0,1.16-2.37,2.2,2.2,0,0,0-1-1.42A.79.79,0,0,1,17,27.81a3.86,3.86,0,0,1,1.81,2.58,4.5,4.5,0,0,1-1.64,3.72,2.69,2.69,0,0,0-.83,1.72,2.18,2.18,0,0,0,.82,1.58.79.79,0,0,1-.55,1.36Zm6.55,0a.78.78,0,0,1-.54-.21,3.7,3.7,0,0,1-1.31-2.76A4.28,4.28,0,0,1,22.64,33,3,3,0,0,0,23.8,30.6a2.2,2.2,0,0,0-1-1.42.79.79,0,1,1,.78-1.37,3.86,3.86,0,0,1,1.81,2.58,4.5,4.5,0,0,1-1.64,3.72,2.69,2.69,0,0,0-.83,1.72,2.22,2.22,0,0,0,.82,1.58.8.8,0,0,1,0,1.12.82.82,0,0,1-.58.24Zm6.55,0a.82.82,0,0,1-.55-.21,3.69,3.69,0,0,1-1.3-2.76A4.29,4.29,0,0,1,29.18,33a3.06,3.06,0,0,0,1.17-2.37,2.24,2.24,0,0,0-1-1.42.79.79,0,0,1,.77-1.38,3.86,3.86,0,0,1,1.81,2.59,4.49,4.49,0,0,1-1.64,3.72,2.68,2.68,0,0,0-.83,1.71,2.18,2.18,0,0,0,.82,1.58.81.81,0,0,1,0,1.12.77.77,0,0,1-.57.25Z"/></svg>