<svg id="图层_1" data-name="图层 1" xmlns="http://www.w3.org/2000/svg" viewBox="0 0 48 48"><defs><style></style></defs><title>图标</title><path class="cls-1" d="M36.69,8H11.39A1.62,1.62,0,0,0,9.76,9.63v2.8a1.62,1.62,0,0,0,1.63,1.63h3.79l1.45,4.79V19a.08.08,0,0,0,.08.08l2.27,2a2.27,2.27,0,0,0,0,4.53h1.9v2.44A2.73,2.73,0,0,0,23.6,30.8H24a2.73,2.73,0,0,0,2.71-2.71V25.65h2.08a2.23,2.23,0,0,0,2.16-2.27,2.36,2.36,0,0,0-2.16-2.26l2.26-2L31.1,19v-.19l1.63-4.79h4a1.62,1.62,0,0,0,1.63-1.63V9.63A1.67,1.67,0,0,0,36.69,8ZM25.57,28a1.43,1.43,0,0,1-1.44,1.44h-.36A1.43,1.43,0,0,1,22.32,28V25.55h3.25Zm4.62-9.68-3.35,3-.09.08s0,.09-.08.09v.36s0,.09.08.09a.08.08,0,0,0,.09.08c.09.09.09.09.19.09h.08c.09,0,.19.08.28.08H29a1,1,0,0,1,.91,1,.92.92,0,0,1-.91,1H19.25a1,1,0,0,1-.91-1,.93.93,0,0,1,.91-1h1.63a.38.38,0,0,0,.28-.08c.08,0,.08-.09.19-.09v-.08l.08-.09v-.34s0-.09-.08-.09l-.09-.09-3.36-3-1.36-4.24h14.9Zm6.86-5.87a.38.38,0,0,1-.36.36H11.39a.39.39,0,0,1-.36-.36V9.63a.39.39,0,0,1,.36-.36h25.3a.39.39,0,0,1,.36.36Zm-17.61,21-4.15,3.79a.6.6,0,0,0,0,.91.67.67,0,0,0,.44.19.75.75,0,0,0,.45-.19l4.15-3.79a.64.64,0,0,0-.89-.91Zm9.56.46a.7.7,0,0,0-.91,0,.69.69,0,0,0,0,.91l3.63,3.35a.62.62,0,0,0,.89,0,.69.69,0,0,0,0-.91Zm-5-.55a.63.63,0,0,0-.64.64v5.42A.63.63,0,0,0,24,40a.62.62,0,0,0,.63-.64V33.94A.62.62,0,0,0,24,33.3ZM34.7,30.59h-6a.63.63,0,0,0-.64.64.62.62,0,0,0,.64.63h6a.62.62,0,0,0,.64-.63.63.63,0,0,0-.64-.64Zm-15,.64a.63.63,0,0,0-.64-.64H13.11a.63.63,0,0,0-.64.64.62.62,0,0,0,.64.63h5.95A.61.61,0,0,0,19.7,31.23Z"/></svg>