<svg id="图层_1" data-name="图层 1" xmlns="http://www.w3.org/2000/svg" viewBox="0 0 48 48"><defs><style></style></defs><title>图标</title><path class="cls-1" d="M23,40.31a7,7,0,0,1-7-7,6.9,6.9,0,0,1,3.72-6.15V8.72a3,3,0,0,1,3-3h.44a3,3,0,0,1,3,3V27.18A7,7,0,0,1,23,40.31ZM22.75,7.42a1.31,1.31,0,0,0-1.31,1.3v19a.84.84,0,0,1-.52.79,5.24,5.24,0,1,0,4.12,0,.9.9,0,0,1-.52-.79v-19a1.3,1.3,0,0,0-1.31-1.3Z"/><path class="cls-1" d="M23,30.54a.87.87,0,0,1-.87-.87V20.36a.87.87,0,1,1,1.74,0v9.33A.87.87,0,0,1,23,30.54Z"/><path class="cls-1" d="M23,37.34a4.18,4.18,0,1,1,4.18-4.18A4.18,4.18,0,0,1,23,37.34Zm0-6.61a2.43,2.43,0,1,0,2.43,2.43A2.43,2.43,0,0,0,23,30.73ZM31.13,8.66H28.07a.87.87,0,0,1,0-1.74h3.06a.87.87,0,1,1,0,1.74Zm0,3.66H28.07a.88.88,0,0,1,0-1.75h3.06a.88.88,0,0,1,0,1.75Zm0,3.66H28.07a.88.88,0,0,1,0-1.75h3.06a.88.88,0,0,1,0,1.75Zm0,3.63H28.07a.87.87,0,0,1,0-1.74h3.06a.87.87,0,0,1,0,1.74Zm0,3.66H28.07a.88.88,0,0,1,0-1.75h3.06a.88.88,0,0,1,.87.88A.86.86,0,0,1,31.13,23.27Zm0,3.66H28.07a.88.88,0,0,1,0-1.75h3.06a.88.88,0,0,1,.87.87A.87.87,0,0,1,31.13,26.93Z"/></svg>