<svg id="图层_1" data-name="图层 1" xmlns="http://www.w3.org/2000/svg" viewBox="0 0 48 48"><defs><style></style></defs><title>图标</title><path class="cls-1" d="M35.5,15.7V15L37,16.37,35.5,17.71V17H30.11V15.7Zm0-3.77v-.67L37,12.6,35.5,14v-.68H30.11V11.93ZM10.62,28.2A12.1,12.1,0,0,1,18.69,7.1H41V21.87H30.49a12.08,12.08,0,0,1-3.73,6.33V41.5H10.62V28.2Zm2.15,3.36v7.79H24.61V31.56ZM25.57,9.25H18.69a9.94,9.94,0,1,0,9.93,10.47H38.85V9.25ZM15.68,24.92c-.55.29-1.74.53-3.11-2s-.05-4.1.72-4.51a6.27,6.27,0,0,1,3-.1,2.46,2.46,0,0,1,.89-1.19,3.14,3.14,0,0,0-.8-1.68,3.17,3.17,0,0,1-1.26-2c0-.62.34-1.77,3.22-1.77s3.64,1.91,3.64,2.79a7,7,0,0,1-1.46,2.84,2.57,2.57,0,0,1,.84,1.53,2.91,2.91,0,0,0,1.59-.14,3.28,3.28,0,0,1,2.35-.36c.59.24,1.5,1,.38,3.65s-3.2,2.58-4,2.23a7,7,0,0,1-2.06-2.48,2.69,2.69,0,0,1-.84.14,2.6,2.6,0,0,1-1.07-.22,2.89,2.89,0,0,0-.79,1.24,3.2,3.2,0,0,1-1.19,2ZM21.19,20a2.71,2.71,0,0,1-.62,1,5.87,5.87,0,0,0,1.1,1.35,1.58,1.58,0,0,0,2.59-.79c.68-1.57.38-1.85-.48-1.6a6.66,6.66,0,0,1-2.59,0Zm-2.45.34a1.15,1.15,0,0,0,1.17-1.17,1.17,1.17,0,1,0-2.34,0A1.17,1.17,0,0,0,18.74,20.34ZM18.42,13c-1.72,0-1.86.38-1.29,1.09a6,6,0,0,1,1.08,2.51v.05a2.41,2.41,0,0,1,1.1.05,6,6,0,0,0,.86-1.63C20.38,14.15,20.14,13,18.42,13Zm-3.65,6.61a1.55,1.55,0,0,0-1,2.51c.83,1.49,1.22,1.44,1.56.62a6.57,6.57,0,0,1,1.42-1.91,2.41,2.41,0,0,1-.54-1.27A4.54,4.54,0,0,0,14.77,19.59Zm-.91,13.17h2.68v5.39H13.86Zm.39.42v1.08h1.88V33.18Zm3.1-.42H20v5.39H17.35Zm.4,3.91v1.08h1.87V36.67Zm3.09-3.91h2.68v5.39H20.84Zm.41,2.15V36h1.88V34.91Z"/></svg>