<svg id="图层_1" data-name="图层 1" xmlns="http://www.w3.org/2000/svg" viewBox="0 0 48 48"><defs><style></style></defs><title>图标</title><g id="图层_1-2" data-name="图层 1-2"><path class="cls-1" d="M32.83,21.86l-3,3a.7.7,0,0,0,0,1,.71.71,0,0,0,1,0l3-3a.68.68,0,0,0,0-1,.69.69,0,0,0-1,0m-2-4.95,4,4a.7.7,0,0,0,1-1l-3.95-4a.7.7,0,0,0-1,0,.69.69,0,0,0,0,1l0,0"/><path class="cls-1" d="M32.83,14l-6.42,6.42-.17.31-2,6.91a.73.73,0,0,0,.17.68l1.49,1.48a.69.69,0,0,0,1,0h0l3.47-3.45,9.39,9.39a2.1,2.1,0,0,0,3,0l1-1a2.12,2.12,0,0,0,0-3l-9.4-9.39,3.46-3.46a.69.69,0,0,0,0-1h0l-4-3.95A.71.71,0,0,0,32.83,14Zm3.46,4.45-3.46,3.46a.69.69,0,0,0,0,1h0l9.89,9.89a.71.71,0,0,1,0,1l-1,1a.71.71,0,0,1-1,0l-9.88-9.89a.71.71,0,0,0-1,0l-3.46,3.46-.7-.7,1.81-6.35,5.81-5.8Z"/><path class="cls-1" d="M32.75,28.68v8.73a1,1,0,0,1-.85,1.07H22.12a.91.91,0,0,1-.85-.85V10.4a.91.91,0,0,1,.85-.85H31.9a.91.91,0,0,1,.85.85V14l2.56,1.39V8.7a.8.8,0,0,0-.22-.64l-.85-.85C34.24,7,34,7,33.82,7H6.17c-.21,0-.43,0-.43.21l-.85.85a.8.8,0,0,0-.21.64V39.33a.8.8,0,0,0,.21.64l.85.85c0,.21.22.21.43.21H33.6a.79.79,0,0,0,.64-.21l.85-.85a.8.8,0,0,0,.22-.64V31.25Zm-14,8.73a1,1,0,0,1-.85,1.07H8.08a.92.92,0,0,1-.85-.85V10.4a.92.92,0,0,1,.85-.85h9.79a.92.92,0,0,1,.85.85Zm1.7-11.48h-.64V22.74l-.21-.64h.85Z"/></g></svg>