<svg id="图层_1" data-name="图层 1" xmlns="http://www.w3.org/2000/svg" viewBox="0 0 48 48"><defs><style></style></defs><title>图标</title><g id="图层_1-2" data-name="图层 1-2"><path class="cls-1" d="M33.66,18.18a1,1,0,0,1-.3-.05.81.81,0,0,1-.45-1.06,4.44,4.44,0,0,0-4.62-6,.81.81,0,0,1-.19-1.61,6.06,6.06,0,0,1,6.31,8.26A.81.81,0,0,1,33.66,18.18Z"/><path class="cls-1" d="M36.84,18.63a.82.82,0,0,1-.81-.82.78.78,0,0,1,0-.22,7.6,7.6,0,0,0-1.24-6.77,7.49,7.49,0,0,0-6.2-3,.78.78,0,0,1-.83-.7V7.06a.82.82,0,0,1,.78-.84h0a9.21,9.21,0,0,1,9.42,9,9.4,9.4,0,0,1-.38,2.84A.81.81,0,0,1,36.84,18.63ZM30.57,17a.17.17,0,0,1-.1,0,.79.79,0,0,1-.7-.89,1.54,1.54,0,0,0-1.29-1.75h0a.8.8,0,0,1-.66-.94.81.81,0,0,1,.88-.67,3.17,3.17,0,0,1,2.72,3.56A.81.81,0,0,1,30.57,17Z"/><path class="cls-1" d="M26.7,40.14h-12A2.12,2.12,0,0,1,12.6,38V16.31a2.11,2.11,0,0,1,2.11-2.11h12a2.1,2.1,0,0,1,2.11,2.11h0V38A2.12,2.12,0,0,1,26.7,40.14Zm-12-24.31a.48.48,0,0,0-.49.48h0V38a.49.49,0,0,0,.49.49h12a.49.49,0,0,0,.49-.49V16.31a.48.48,0,0,0-.49-.48Z"/><path class="cls-1" d="M19.41,34.94a1.3,1.3,0,0,0,2.59,0h0a1.3,1.3,0,1,0-2.59,0Z"/><path class="cls-1" d="M25.6,26.79H15.81s0,0,0,0V20a0,0,0,0,1,0,0H25.6a0,0,0,0,1,0,0v6.74Z"/></g></svg>