<svg id="图层_1" data-name="图层 1" xmlns="http://www.w3.org/2000/svg" viewBox="0 0 48 48"><defs><style></style></defs><title>图标</title><g id="图层_1-2" data-name="图层 1-2"><path class="cls-1" d="M19,28.71a1.64,1.64,0,0,0,1.64-1.64c0-.9-1.64-2.72-1.64-2.72s-1.64,1.82-1.64,2.72A1.65,1.65,0,0,0,19,28.71"/><path class="cls-1" d="M37.46,34.73a5.46,5.46,0,0,0,5.45-5.46c0-3-5.46-9.1-5.46-9.1S32,26.26,32,29.27a5.45,5.45,0,0,0,5.45,5.46h0"/><path class="cls-1" d="M32.88,17.87a1.54,1.54,0,0,0,1.54-1.54c0-.85-1.54-2.55-1.54-2.55s-1.54,1.7-1.54,2.55a1.54,1.54,0,0,0,1.54,1.54"/><path class="cls-1" d="M27.07,6H11A1.91,1.91,0,0,0,9.09,7.91V38.53A1.91,1.91,0,0,0,11,40.44H27.07A1.9,1.9,0,0,0,29,38.53V7.91A1.91,1.91,0,0,0,27.07,6Zm0,32.53H11V36.48H27.07Zm0-3.94H11V7.91H27.07V34.58Z"/><path class="cls-1" d="M24.23,9.35H13.84a1.44,1.44,0,0,0-1.44,1.43V31.46a1.44,1.44,0,0,0,1.43,1.44h10.4a1.43,1.43,0,0,0,1.43-1.43V10.78A1.43,1.43,0,0,0,24.23,9.35Zm-.48,13V31H14.31v-3.5h0v-1.9h0V22.07h9.44Zm0-2.13H14.31v-3.5h9.44Zm0-5.41H14.31v-3.5h9.44Z"/></g></svg>