<svg id="图层_1" data-name="图层 1" xmlns="http://www.w3.org/2000/svg" viewBox="0 0 198.15 203.69"><defs></defs><title>进水压力</title><path class="cls-1" d="M63.9,58.6h38.39c30.3,0,50.5,10.11,50.5,39.49,0,28.47-20.2,41.69-49.59,41.69H81v53.45H63.9ZM101,126c23.69,0,34.9-8.63,34.9-27.92,0-19.47-11.94-25.71-35.64-25.71H81V126Z" transform="translate(-0.69 -0.27)"/><path class="cls-1" d="M184,78.27A14.89,14.89,0,0,1,171.12,71,83.51,83.51,0,0,0,99.53,30.06a82.54,82.54,0,0,0-71.2,40.23A14.89,14.89,0,1,1,2.83,54.91,112.09,112.09,0,0,1,99.53.27,113.44,113.44,0,0,1,196.77,55.8,14.9,14.9,0,0,1,184,78.27Z" transform="translate(-0.69 -0.27)"/><polygon class="cls-1" points="183.6 172.11 149.11 172.11 149.11 157.62 120.04 177.79 149.11 197.96 149.11 182.96 183.6 182.96 183.6 172.11"/><path class="cls-1" d="M152.8,204l-37.33-25.9,37.33-25.9v17.22h34.49v16.85H152.8ZM126,178.06,146.8,192.5V180.23h34.49v-4.85H146.8V163.62Z" transform="translate(-0.69 -0.27)"/></svg>