<?xml version="1.0" encoding="utf-8"?><!DOCTYPE svg PUBLIC "-//W3C//DTD SVG 1.1//EN" "http://www.w3.org/Graphics/SVG/1.1/DTD/svg11.dtd"><svg id="\u7981\u6B62 (1)" width="128" height="128" style="width:128px;height:128px;" version="1.1" xmlns="http://www.w3.org/2000/svg" viewBox="0 0 1024 1024" enable-background="new 0 0 1024 1024" xml:space="preserve"><path d="M512.51 0 q-217.4 5.08 -361.65 149.33 q-143.24 142.23 -149.34 360.64 q6.1 217.4 149.34 363.68 q144.25 145.27 361.65 150.35 q216.38 -5.08 360.63 -148.32 q143.24 -143.24 149.34 -360.63 q-6.1 -221.46 -149.34 -365.72 q-144.25 -144.25 -360.63 -149.33 ZM512.51 973.21 q-199.11 -5.08 -329.14 -135.11 q-131.05 -131.05 -136.13 -328.13 q2.03 -91.43 32.51 -169.65 q31.49 -79.24 88.38 -143.24 l657.27 655.24 q-64 57.9 -143.24 89.39 q-79.24 31.5 -169.65 31.5 ZM198.6 166.6 q61.97 -56.89 142.23 -89.39 q80.25 -31.5 171.68 -31.5 q198.09 5.08 328.12 135.12 q131.05 131.04 136.13 329.14 q-1.01 91.43 -32.51 171.68 q-31.49 80.25 -88.38 141.21 l-657.27 -656.26 ZM734.98 232.63 q-69.08 -19.3 -109.21 -4.57 q-40.13 14.73 -69.58 82.8 l-4.06 105.65 q-10.16 20.32 -18.79 30.48 q-8.63 10.15 -18.8 6.6 q-10.16 -3.56 -13.2 -8.63 q-3.05 -5.08 1.52 -9.14 q4.57 -4.06 18.79 -15.75 q14.22 -11.69 17.27 -26.93 q0 -40.63 6.61 -106.15 q6.61 -65.53 64.5 -81.78 q17.27 -1.02 36.07 -0.51 q18.79 0.51 35.04 4.57 q22.35 3.05 32 8.13 q9.65 5.08 21.84 15.23 ZM450.54 510.98 q0 11.18 0 21.34 q0 10.16 -4.06 20.31 q-20.32 35.56 -78.74 22.86 q-58.42 -12.7 -90.92 -9.65 q-42.67 17.27 -46.22 60.45 q-3.56 43.17 -1.53 78.73 q-7.11 0 -12.19 -11.68 q-5.08 -11.69 -6.6 -24.38 q-1.53 -12.7 5.59 -58.41 q8.13 -59.94 37.59 -58.92 q29.46 1.01 71.11 8.13 q33.53 3.04 67.56 -4.07 q34.03 -7.11 39.11 -25.9 q5.08 -18.8 19.3 -18.8 ZM232.13 396.19 q-6.1 -105.65 29.45 -156.44 q35.56 -50.8 144.25 -47.75 q30.48 0 35.56 0.51 q5.08 0.51 13.72 8.64 q8.63 8.13 5.58 11.17 q-113.78 -3.05 -164.06 32 q-50.28 35.05 -57.39 151.87 l-7.11 0 ZM337.78 174.73 q-57.91 14.22 -91.94 51.3 q-34.03 37.08 -37.08 98.03 q-2.03 17.27 -0.5 50.8 q1.53 33.52 17.78 51.81 q13.21 13.2 29.47 26.41 q16.25 13.21 31.49 24.38 q132.07 24.38 132.07 27.43 q0 3.05 -4.57 11.69 q-4.58 8.63 -6.61 10.15 q-2.03 1.52 -15.24 8.64 l-136.12 -10.16 q-24.38 12.19 -35.56 26.41 q-11.17 14.22 -22.35 37.59 l0 112.76 q39.62 73.14 108.7 105.65 q69.08 32.51 143.24 -31.49 q16.25 -14.23 33.52 -32 q17.27 -17.77 26.42 -38.6 q9.14 -20.83 9.14 -45.21 q0 -24.38 2.54 -35.55 q2.54 -11.18 6.09 -11.18 q3.55 0 4.57 3.55 q1.01 3.56 6.61 22.86 q5.59 19.3 2.54 31.49 q-18.29 37.59 -30.99 67.05 q-12.69 29.46 13.72 69.08 q52.82 58.92 131.55 33.52 q78.73 -25.39 116.32 -88.38 q34.54 -68.06 12.7 -122.92 q-21.84 -54.86 -79.75 -98.54 q-22.35 -14.22 -54.86 -22.85 q-32.5 -8.64 -53.83 -13.72 q-7.12 -7.11 16.25 -37.59 l125.97 33.53 q50.79 -1.02 68.06 -31.5 q17.27 -30.47 7.11 -82.28 q-10.16 -70.1 -37.59 -124.95 q-27.42 -54.85 -102.61 -70.09 q-24.38 -4.06 -50.79 0 q-96.51 22.35 -96 97.02 q0.51 74.66 -12.7 104.63 q-13.21 29.97 -18.29 29.97 q-5.08 0 -9.14 -41.65 q-4.06 -41.65 17.78 -79.24 q21.84 -37.59 -44.19 -117.84 l-122.92 0 ZM708.57 562.79 q-118.86 -44.69 -108.7 -44.69 l108.7 44.69 ZM569.4 661.33 q5.08 45.72 1.52 52.32 q-3.55 6.6 -32 62.48 q-7.11 0 -11.18 -15.75 q-4.06 -15.75 11.18 -42.16 q15.24 -26.41 19.3 -41.65 q4.07 -15.24 11.18 -15.24 Z"/></svg>