<?xml version="1.0" encoding="utf-8"?><!DOCTYPE svg PUBLIC "-//W3C//DTD SVG 1.1//EN" "http://www.w3.org/Graphics/SVG/1.1/DTD/svg11.dtd"><svg id="\u7981\u6B62 (1)" width="128" height="128" style="width:128px;height:128px;" version="1.1" xmlns="http://www.w3.org/2000/svg" viewBox="0 0 1024 1024" enable-background="new 0 0 1024 1024" xml:space="preserve"><path  d="M512.51 973.21 q90.41 0 169.65 -31.5 q79.24 -31.49 143.24 -89.39 l-657.27 -655.24 q-56.89 64 -88.38 143.24 q-30.48 78.22 -32.51 169.65 q5.08 197.08 136.13 328.13 q130.03 130.03 329.14 135.11 ZM512.51 0 q216.38 5.08 360.63 149.33 q143.24 144.26 149.34 365.72 q-6.1 217.39 -149.34 360.63 q-144.25 143.24 -360.63 148.32 q-217.4 -5.08 -361.65 -150.35 q-143.24 -146.28 -149.34 -363.68 q6.1 -218.41 149.34 -360.64 q144.25 -144.25 361.65 -149.33 ZM855.87 822.86 q56.89 -60.96 88.38 -141.21 q31.5 -80.25 32.51 -171.68 q-5.08 -198.1 -136.13 -329.14 q-130.03 -130.04 -328.12 -135.12 q-91.43 0 -171.68 31.5 q-80.26 32.5 -142.23 89.39 l657.27 656.26 ZM446.99 75.18 q46.22 -7.12 113.27 -3.56 q67.04 3.55 116.82 24.89 q49.78 21.34 81.27 42.67 q31.49 21.33 56.38 45.71 q24.89 24.38 64 81.27 q39.11 56.89 53.34 99.56 q14.22 42.66 14.22 144.76 q0 102.1 -11.17 137.65 q-11.17 35.55 -46.22 92.44 q-35.05 56.89 -77.72 95.5 q-42.66 38.6 -88.38 63.49 q-45.72 24.88 -102.1 39.11 q-56.38 14.23 -120.38 14.23 q-64 0 -110.23 -14.23 q-46.23 -14.22 -77.72 -31.49 q-31.49 -17.27 -91.43 -74.16 q-59.93 -56.88 -74.66 -78.22 q-14.73 -21.34 -35.56 -74.67 q-20.83 -53.34 -28.45 -88.89 q-7.61 -35.55 -3.55 -102.6 q4.06 -67.05 28.45 -134.1 q24.38 -67.05 39.12 -88.38 q14.73 -21.33 77.71 -78.22 q62.98 -56.89 119.87 -81.27 q56.89 -24.38 103.12 -31.5 ZM496.76 496.25 q10.67 -10.67 24.38 -3.56 q13.72 7.11 13.72 17.78 q0 10.66 -13.72 17.78 q-13.71 7.12 -24.38 -7.11 q-10.66 -14.22 0 -24.89 ZM564.83 317.46 q5.58 -37.08 -69.08 -71.11 q-74.67 -34.03 -136.13 58.41 q-61.46 92.44 17.77 146.79 q79.24 54.35 79.24 65.52 q0 11.17 -7.11 17.78 q-7.11 6.61 -7.11 6.61 q-176.76 -74.16 -190.98 -43.69 q-14.22 30.48 -14.22 36.58 q-10.16 92.44 49.78 154.41 q59.94 61.97 149.33 -13.2 q17.27 -17.27 29.46 -40.13 q12.19 -22.86 26.41 -44.19 q21.33 0 28.44 7.11 q7.12 7.11 5.08 33.52 q-2.03 26.41 -30.48 61.97 q-28.44 35.55 -29.97 61.96 q-1.52 26.41 67.56 59.94 q69.07 33.52 134.6 -47.75 q65.53 -81.27 -12.69 -169.65 q-17.27 -14.22 -37.08 -22.86 q-19.81 -8.63 -40.13 -19.82 q-7.11 -14.22 19.31 -29.96 q26.41 -15.75 63.49 19.3 q37.08 35.04 65.53 44.19 q28.44 9.15 34.03 2.04 q5.59 -7.11 19.3 -22.86 q13.72 -15.75 17.78 -34.03 q10.16 -67.05 -23.37 -129.01 q-33.53 -61.97 -111.75 -47.75 q-45.71 14.22 -74.16 53.33 q-28.44 39.11 -52.82 73.65 q-49.78 -56.89 -12.7 -93.46 q37.08 -36.57 42.67 -73.65 Z"/></svg>