<?xml version="1.0" standalone="no"?><!DOCTYPE svg PUBLIC "-//W3C//DTD SVG 1.1//EN" "http://www.w3.org/Graphics/SVG/1.1/DTD/svg11.dtd"><svg t="1605181728056" class="icon" viewBox="0 0 1024 1024" version="1.1" xmlns="http://www.w3.org/2000/svg" p-id="18746" xmlns:xlink="http://www.w3.org/1999/xlink" width="200" height="200"><defs><style type="text/css"></style></defs><path d="M281.856 292.16l160.576 291.904L442.432 290.048c0-15.104 3.392-26.496 10.24-34.048s16.064-11.392 27.712-11.392c12.032 0 21.44 3.84 28.416 11.392s10.432 18.944 10.432 34.048l0 369.088c0 34.368-14.976 51.584-44.992 51.584-7.488 0-14.272-1.088-20.224-3.072C448 705.536 442.368 702.336 437.12 697.856c-5.248-4.48-10.112-9.664-14.656-15.616-4.48-6.016-9.024-12.032-13.504-18.304L252.288 374.72l0 290.496c0 14.976-3.648 26.304-10.944 33.92-7.296 7.68-16.704 11.52-28.096 11.52-11.84 0-21.312-3.904-28.416-11.648s-10.688-19.008-10.688-33.792L174.144 302.08c0-12.8 1.472-22.848 4.48-30.208 3.584-8 9.472-14.592 17.728-19.648s17.152-7.616 26.688-7.616c7.488 0 13.952 1.216 19.264 3.52 5.376 2.304 10.048 5.44 14.08 9.344 4.032 3.968 8.192 9.024 12.352 15.232C273.024 278.912 277.312 285.44 281.856 292.16zM929.984 426.944c0 22.848-3.648 44.032-10.88 63.296s-17.664 35.904-31.36 49.728C873.984 553.856 857.6 564.48 838.592 571.968c-19.072 7.36-40.448 11.072-64.32 11.072-23.616 0-44.864-3.776-63.68-11.264-18.88-7.424-35.2-18.176-49.024-32.192-13.824-13.952-24.32-30.464-31.424-49.472C622.976 471.04 619.392 449.984 619.392 426.944c0-23.232 3.648-73.024 10.88-92.288s17.6-35.84 31.104-49.472c13.568-13.696 29.952-24.256 49.216-31.68 19.2-7.36 40.448-11.072 63.68-11.072 23.616 0 45.056 3.776 64.32 11.264s35.712 18.176 49.408 32c13.76 13.952 24.128 30.4 31.232 49.472C926.464 354.24 929.984 403.904 929.984 426.944zM851.776 426.944c0-31.296-6.976-84.16-21.056-101.632-13.952-17.408-32.832-26.176-56.448-26.176-15.232 0-28.608 3.968-40.256 11.712-11.648 7.808-20.608 19.328-26.88 34.432-6.272 15.232-9.408 61.44-9.408 81.664 0 20.032 3.072 37.632 9.344 52.544 6.208 15.04 14.976 26.496 26.56 34.496 11.584 7.936 25.088 11.968 40.704 11.968 23.616 0 42.496-8.768 56.448-26.304C844.736 482.112 851.776 457.856 851.776 426.944zM862.848 640l-189.76 0c-18.24 0-33.28 14.4-33.152 32 0 17.6 14.72 32 33.28 32l189.632 0C881.152 704 896 689.664 896 672.064 896 654.4 881.152 640 862.848 640z" p-id="18747"></path></svg>