<svg id="图层_1" data-name="图层 1" xmlns="http://www.w3.org/2000/svg" viewBox="0 0 198.15 197.96"><defs></defs><title>出水压力</title><path class="cls-1" d="M63.5,59.66h38.39c30.3,0,50.51,10.11,50.51,39.49,0,28.47-20.21,41.69-49.59,41.69H80.58v53.45H63.5Zm37.1,67.41c23.7,0,34.9-8.63,34.9-27.92,0-19.47-11.94-25.71-35.63-25.71H80.58v53.63Z" transform="translate(-0.29 -1.33)"/><path class="cls-1" d="M183.57,79.33A14.87,14.87,0,0,1,170.73,72,83.52,83.52,0,0,0,99.14,31.12a82.53,82.53,0,0,0-71.2,40.23A14.89,14.89,0,1,1,2.44,56,112.07,112.07,0,0,1,99.14,1.33a113.41,113.41,0,0,1,97.23,55.53,14.89,14.89,0,0,1-12.8,22.47Z" transform="translate(-0.29 -1.33)"/><polygon class="cls-1" points="183.6 177.79 154.53 157.62 154.53 172.11 120.04 172.11 120.04 182.96 154.53 182.96 154.53 197.96 183.6 177.79"/></svg>