<svg width="160" height="160" xmlns="http://www.w3.org/2000/svg">

 <title>机主状态</title>
 <g>
  <title>background</title>
  <rect height="162" width="162" y="-1" x="-1" fill="none" id="canvas_background"/>
 </g>
 <g>
  <title>Layer 1</title>
  <path d="m79.002327,5.64a76,76 0 1 0 75.999901,76a76,76 0 0 0 -75.999901,-76zm48.209908,76.879997c-3.070007,10.580002 -10.120003,12.57 -18.400002,5.060005c-6.440002,-5.68 -16.559906,-12 -21.7799,-4c-1.220001,2.759995 8.439995,6.290001 12.579895,9.509995c9.810005,7.820007 12.419998,19.470001 6,28.210007c-6.439995,9.050003 -23.769897,12.419998 -32.509895,6.289993c-6.75,-4.75 -7.210007,-10.429993 -1.080002,-15.339996a22.889999,22.889999 0 0 0 8.589996,-14.410004c0.459999,-2.449997 0.160004,-5.829994 -2.759995,-6.899994c-3.220001,-1.230003 -3.220001,3.369995 -4.75,5.519997c-6.290001,14 -19.000011,18.400002 -29.750011,14.260002c-9.529999,-3.669998 -15.82,-18.389999 -12.599998,-29.730003c2.919998,-10.889999 9.509998,-12.879997 17.950001,-5.209999a30.940001,30.940001 0 0 0 8.579998,6c4,1.840004 8.900005,2.910004 11.000011,-0.459999c3.07,-5.059998 -2.760002,-6.139999 -6.000008,-8.129997c-9.750004,-6.32 -16.340004,-14.290001 -12.460003,-26.710003c3,-9.66 15.900005,-15.49 28.000004,-13.489998c12,2.299999 14.420006,9 6.75,18.41c-2.149994,2.759998 -4,5.82 -5.829994,8.739998c-2.139999,3.68 -3.220001,8.739998 0.619995,10.879997c5.060005,2.920006 6,-2.909996 8,-6c8,-12.109997 18.249901,-16.709995 27.909904,-12.569996c9.329994,4.149998 15.160004,18.719997 11.940002,30.069996z" stroke-dasharray="2,2" id="svg_1" class="cls-1"/>
  <path d="m121.860001,79.529999a4.12,4.12 0 1 0 5.830002,0a4.28,4.28 0 0 0 -5.830002,0z" id="svg_2" class="cls-1"/>
  <path d="m221.5,102.529999c0,0 -32,-35 34,5" opacity="0.5" id="svg_6"/>
  <path d="m22.5,41.529999c129,122 129,122 128.5,121.470001l-128.5,-121.470001z" id="svg_7"/>
  <path d="m24.5,40.529999c0,1 1.418861,2.256584 3,7c0.316227,0.948685 2,3 3,4c1,1 1.692547,2.186008 3,4c0.826904,1.14727 3.70546,3.346191 6,5c1.813992,1.307453 2.70546,2.346191 5,4c3.627987,2.614906 7.211674,3.714119 10,6c1.09367,0.896599 1.593998,2.513008 4,4c2.689995,1.662506 6.692551,4.186005 8,6c0.826904,1.14727 4.152245,3.234634 6,4c3.919685,1.623589 5.186005,3.692551 7,5c2.29454,1.653809 2.693436,3.458801 4,4c0.923882,0.382683 1.186005,0.692551 3,2c2.29454,1.653809 4,3 6,6c0,0 0,0 2,1c0,0 0,0 2,1c0,0 0,0 3,4c0,0 1,0 3,1c0,0 0.693436,1.458801 2,2c0.923882,0.382683 1,1 3,3c1,1 3.173096,2.85273 4,4c1.307449,1.813995 1.292892,2.292892 2,3c0.707108,0.707108 2,2 3,3c2,2 3,3 4,4l1,2l0,1l1,0" fill="none" id="svg_8"/>
  <line y2="140.53" x2="153.5" y1="37.53" x1="34.5" fill="none" id="svg_13"/>
 </g>
</svg>