<?xml version="1.0" standalone="no"?><!DOCTYPE svg PUBLIC "-//W3C//DTD SVG 1.1//EN" "http://www.w3.org/Graphics/SVG/1.1/DTD/svg11.dtd"><svg t="1605181659309" class="icon" viewBox="0 0 1024 1024" version="1.1" xmlns="http://www.w3.org/2000/svg" p-id="17521" width="200" height="200" xmlns:xlink="http://www.w3.org/1999/xlink"><defs><style type="text/css"></style></defs><path d="M544 192a352 352 0 0 1 290.112 551.424l-9.6 13.248-46.72-35.52a293.312 293.312 0 1 0-85.056 75.712l13.248-8.256 32.384 48.896A352 352 0 1 1 544 192z m83.712 287.36c26.24 0 47.488 8.768 63.36 26.24 15.424 17.216 23.552 39.04 23.552 65.664 0 26.24-7.744 48.128-23.232 64.96-16.192 17.536-37.376 26.624-63.68 26.624-26.24 0-47.488-9.088-63.616-26.624-15.488-16.832-23.232-38.72-23.232-64.96 0-26.56 7.68-48.448 23.552-65.664 15.808-17.472 37.056-26.24 63.36-26.24z m146.496 130.624c6.72 0 12.8 2.368 17.856 7.04a25.856 25.856 0 0 1 0 36.032 26.752 26.752 0 0 1-17.92 6.784 23.616 23.616 0 0 1-17.472-6.72 24.448 24.448 0 0 1-7.424-17.92 23.68 23.68 0 0 1 7.424-18.112 22.592 22.592 0 0 1 17.536-7.04zM342.528 417.728l122.88 178.816h1.408V417.728h36.672v240.384h-35.712L343.552 477.312h-1.344v180.8h-36.672V417.728h36.992z m285.184 90.88c-16.512 0-29.248 6.4-38.4 19.584-8.064 11.072-11.776 25.6-11.776 43.072 0 17.536 3.712 31.68 11.776 42.752 9.152 12.8 21.888 19.52 38.4 19.52a45.632 45.632 0 0 0 38.72-19.52c8.064-11.456 12.16-25.6 12.16-42.752 0-17.472-4.096-32-12.16-43.072a44.8 44.8 0 0 0-38.72-19.52z" p-id="17522"></path></svg>