<svg xmlns="http://www.w3.org/2000/svg" width="47.094" height="49" viewBox="0 0 47.094 49">
  <defs>
    <style>
      .cls-1 {
        fill: #42db83;
        fill-rule: evenodd;
      }
    </style>
  </defs>
  <path id="形状_2_拷贝_4" data-name="形状 2 拷贝 4" class="cls-1" d="M538,1195s19.333-.4,24-19c5.866-20.8,1-30,1-30a21.793,21.793,0,0,1-6,9c-4.5,4-16.833,13.67-18,20S536.166,1188.67,538,1195Zm-3-1s-19.167-2-17-32c0,0,2.666,3.67,5,5s11.833,6.67,13,9C536,1176,533.809,1182.9,535,1194Zm22-31c-2.6,17.7-18,32-18,32h-2v-3S546,1184.37,557,1163Zm-33,10s7.666,6.67,11,10v3S526.666,1179.33,524,1173Z" transform="translate(-517.812 -1146)"/>
</svg>
