<svg id="图层_1" data-name="图层 1" xmlns="http://www.w3.org/2000/svg" viewBox="0 0 166.34 166.06"><defs></defs><title>水箱溢出</title><path class="cls-1" d="M187.75,168.91H174.39V43.78a3.18,3.18,0,0,0-3.18-3.18H151a3,3,0,0,0-3,3h0a3,3,0,0,0,3,3h17v125.8a3.15,3.15,0,0,0,3.13,3.17,3.29,3.29,0,0,0,.45,0l.43,0h15.7a3.34,3.34,0,0,0,0-6.68Z" transform="translate(-24.75 -9.53)"/><path class="cls-1" d="M54.85,17.16a1.39,1.39,0,0,1,1.31.93l1.23,3.46a1.41,1.41,0,0,1-.85,1.78l-12,4.22a1.37,1.37,0,0,1-1.76-.84h0l-1.23-3.46a1.38,1.38,0,0,1,.84-1.77l12-4.23a1.44,1.44,0,0,1,.46-.08m0-1.95a3.5,3.5,0,0,0-1.11.19l-12,4.22a3.36,3.36,0,0,0-2,4.27L41,27.35a3.34,3.34,0,0,0,4.25,2h0l12-4.22a3.33,3.33,0,0,0,2-4.26L58,17.44a3.34,3.34,0,0,0-3.14-2.23Z" transform="translate(-24.75 -9.53)"/><path class="cls-1" d="M116.66,11.49v8.12H65.79V11.49h50.87m2-2H63.83v12h54.78Z" transform="translate(-24.75 -9.53)"/><path class="cls-1" d="M116.74,20.17c3.74,1.37,7.68,2.44,11.5,3.47,6.44,1.74,12.53,3.38,17.5,6.36l.26.16.31.07a1.41,1.41,0,0,1,1.08,1.35V144.85a1.39,1.39,0,0,1-1.39,1.39H37.45a1.39,1.39,0,0,1-1.39-1.39V31.58a1.36,1.36,0,0,1,.36-.92l0,0a1.36,1.36,0,0,1,.8-.42l.31,0,.28-.14a103.57,103.57,0,0,1,17.31-6.32c3.53-1.06,7.19-2.15,10.92-3.54h50.67m.35-2H65.72c-9.87,3.7-19,5.24-28.75,10.06a3.33,3.33,0,0,0-1.94,1l-.14.07H35a3.39,3.39,0,0,0-.85,2.23V144.85a3.34,3.34,0,0,0,3.34,3.34H146a3.34,3.34,0,0,0,3.34-3.34V31.58a3.33,3.33,0,0,0-2.6-3.25c-8.38-5-19.75-6.41-29.65-10.11Z" transform="translate(-24.75 -9.53)"/><path class="cls-1" d="M146,54.25a1.39,1.39,0,0,1,1.39,1.39v5A1.39,1.39,0,0,1,146,62.05H38.12a1.39,1.39,0,0,1-1.39-1.39v-5a1.39,1.39,0,0,1,1.39-1.39H146m0,28.4A1.4,1.4,0,0,1,147.39,84v5A1.39,1.39,0,0,1,146,90.44H38.12a1.39,1.39,0,0,1-1.39-1.39V84a1.39,1.39,0,0,1,1.39-1.39H146m0,29.4a1.4,1.4,0,0,1,1.39,1.39v5a1.38,1.38,0,0,1-1.39,1.38H38.12a1.38,1.38,0,0,1-1.39-1.38v-5a1.4,1.4,0,0,1,1.39-1.39H146m0-59.75H38.12a3.33,3.33,0,0,0-3.34,3.34h0v5A3.34,3.34,0,0,0,38.12,64H146a3.35,3.35,0,0,0,3.34-3.34v-5A3.35,3.35,0,0,0,146,52.3Zm0,28.4H38.12A3.33,3.33,0,0,0,34.78,84h0v5a3.33,3.33,0,0,0,3.34,3.34H146a3.34,3.34,0,0,0,3.34-3.34V84A3.34,3.34,0,0,0,146,80.7Zm0,29.4H38.12a3.34,3.34,0,0,0-3.34,3.34v5a3.33,3.33,0,0,0,3.34,3.33H146a3.34,3.34,0,0,0,3.34-3.33v-5A3.35,3.35,0,0,0,146,110.1Z" transform="translate(-24.75 -9.53)"/><path class="cls-1" d="M40.46,45.62H142v5H40.46Z" transform="translate(-24.75 -9.53)"/><path class="cls-1" d="M40.46,139.5H142v5H40.46Z" transform="translate(-24.75 -9.53)"/><path class="cls-1" d="M40.46,131.82H142v3H40.46Z" transform="translate(-24.75 -9.53)"/><path class="cls-1" d="M40.46,39.27H142v3H40.46Z" transform="translate(-24.75 -9.53)"/><path class="cls-1" d="M155,146.47a1.38,1.38,0,0,1,1.38,1.39v8.35A1.38,1.38,0,0,1,155,157.6H28.09a1.39,1.39,0,0,1-1.39-1.39v-8.35a1.39,1.39,0,0,1,1.39-1.39H155m0-1.95H28.09a3.34,3.34,0,0,0-3.34,3.34v8.35a3.34,3.34,0,0,0,3.34,3.34H155a3.34,3.34,0,0,0,3.34-3.34v-8.35A3.34,3.34,0,0,0,155,144.52Z" transform="translate(-24.75 -9.53)"/><path class="cls-1" d="M26.4,157.85H48.5v16.43H26.4Z" transform="translate(-24.75 -9.53)"/><path class="cls-1" d="M46.13,158.83a1.39,1.39,0,0,1,1.39,1.39v11.69a1.39,1.39,0,0,1-1.39,1.39H28.77a1.39,1.39,0,0,1-1.39-1.39V160.22a1.39,1.39,0,0,1,1.39-1.39H46.13m0-2H28.77a3.33,3.33,0,0,0-3.34,3.34v11.69a3.33,3.33,0,0,0,3.34,3.34H46.13a3.33,3.33,0,0,0,3.34-3.34V160.22A3.33,3.33,0,0,0,46.13,156.88Z" transform="translate(-24.75 -9.53)"/><path class="cls-1" d="M81.18,157.85h22.09v16.43H81.18Z" transform="translate(-24.75 -9.53)"/><path class="cls-1" d="M100.91,158.83a1.39,1.39,0,0,1,1.39,1.39v11.69a1.39,1.39,0,0,1-1.39,1.39H83.54a1.38,1.38,0,0,1-1.38-1.39V160.22a1.38,1.38,0,0,1,1.38-1.39h17.37m0-2H83.54a3.34,3.34,0,0,0-3.34,3.34v11.69a3.34,3.34,0,0,0,3.34,3.34h17.37a3.34,3.34,0,0,0,3.34-3.34V160.22A3.34,3.34,0,0,0,100.91,156.88Z" transform="translate(-24.75 -9.53)"/><path class="cls-1" d="M135.29,157.85h22.09v16.43H135.29Z" transform="translate(-24.75 -9.53)"/><path class="cls-1" d="M155,158.83a1.38,1.38,0,0,1,1.38,1.39v11.69A1.38,1.38,0,0,1,155,173.3H137.66a1.39,1.39,0,0,1-1.39-1.39V160.22a1.39,1.39,0,0,1,1.39-1.39H155m0-2H137.66a3.34,3.34,0,0,0-3.34,3.34v11.69a3.34,3.34,0,0,0,3.34,3.34H155a3.34,3.34,0,0,0,3.34-3.34V160.22A3.34,3.34,0,0,0,155,156.88Z" transform="translate(-24.75 -9.53)"/></svg>